<svg width="53" height="56" viewBox="0 0 53 56" fill="none" xmlns="http://www.w3.org/2000/svg">
<path d="M12.9966 8.56536L13.2643 8.54599L13.3961 8.31226C14.7608 5.89207 16.557 3.98813 18.7854 2.59023C21.0032 1.19901 23.5087 0.5 26.3158 0.5C30.1895 0.5 33.4076 1.73564 36.0048 4.1963C38.6201 6.67414 40.2252 9.74037 40.8223 13.4136L40.887 13.812L41.2902 13.8327C44.6469 14.0049 47.2687 15.1505 49.2057 17.2399C51.1602 19.3482 52.1316 21.816 52.1316 24.6667C52.1316 27.6474 51.097 30.1886 49.0174 32.3173C46.9406 34.4429 44.4271 35.5 41.4474 35.5H13.8158C10.1347 35.5 7.00603 34.1876 4.40194 31.5488C1.79762 28.9098 0.5 25.7362 0.5 22C0.5 18.6196 1.68835 15.6037 4.08888 12.9343C6.48083 10.2746 9.44182 8.82266 12.9966 8.56536ZM13.6842 11.5H13.676L13.6679 11.5003C10.8206 11.5933 8.39526 12.6577 6.4184 14.6842C4.44095 16.7113 3.44737 19.159 3.44737 22C3.44737 24.8866 4.46375 27.3684 6.48622 29.4179C8.5089 31.4675 10.9612 32.5 13.8158 32.5H41.4474C43.5997 32.5 45.4397 31.7233 46.9375 30.1818C48.4333 28.6424 49.1842 26.7724 49.1842 24.6C49.1842 22.4687 48.4308 20.6314 46.9348 19.1155C45.4364 17.597 43.5972 16.8333 41.4474 16.8333H38V15.3333C38 12.0494 36.8648 9.24454 34.5993 6.9488C32.3335 4.65279 29.5624 3.5 26.3158 3.5C23.9819 3.5 21.8361 4.13937 19.8903 5.4152C17.9427 6.69224 16.5083 8.42543 15.5932 10.6028L15.1996 11.5H13.6842ZM10.5263 44.8333C10.0558 44.8333 9.644 44.6608 9.27036 44.2821C8.89667 43.9035 8.72368 43.4831 8.72368 43C8.72368 42.5169 8.89667 42.0965 9.27036 41.7179C9.644 41.3392 10.0558 41.1667 10.5263 41.1667C10.9969 41.1667 11.4086 41.3392 11.7823 41.7179C12.156 42.0965 12.3289 42.5169 12.3289 43C12.3289 43.4831 12.156 43.9035 11.7823 44.2821C11.4086 44.6608 10.9969 44.8333 10.5263 44.8333ZM42.1053 44.8333C41.6347 44.8333 41.223 44.6608 40.8493 44.2821C40.4756 43.9035 40.3026 43.4831 40.3026 43C40.3026 42.5169 40.4756 42.0965 40.8493 41.7179C41.223 41.3392 41.6347 41.1667 42.1053 41.1667C42.5758 41.1667 42.9876 41.3392 43.3612 41.7179C43.7349 42.0965 43.9079 42.5169 43.9079 43C43.9079 43.4831 43.7349 43.9035 43.3612 44.2821C42.9876 44.6608 42.5758 44.8333 42.1053 44.8333ZM18.4211 55.5C17.9505 55.5 17.5387 55.3274 17.1651 54.9488C16.7914 54.5701 16.6184 54.1498 16.6184 53.6667C16.6184 53.1835 16.7914 52.7632 17.1651 52.3845C17.5387 52.0059 17.9505 51.8333 18.4211 51.8333C18.8916 51.8333 19.3034 52.0059 19.677 52.3845C20.0507 52.7632 20.2237 53.1835 20.2237 53.6667C20.2237 54.1498 20.0507 54.5701 19.677 54.9488C19.3034 55.3274 18.8916 55.5 18.4211 55.5ZM26.3158 44.8333C25.8452 44.8333 25.4335 44.6608 25.0598 44.2821C24.6861 43.9035 24.5132 43.4831 24.5132 43C24.5132 42.5169 24.6861 42.0965 25.0598 41.7179C25.4335 41.3392 25.8452 41.1667 26.3158 41.1667C26.7863 41.1667 27.1981 41.3392 27.5717 41.7179C27.9454 42.0965 28.1184 42.5169 28.1184 43C28.1184 43.4831 27.9454 43.9035 27.5717 44.2821C27.1981 44.6608 26.7863 44.8333 26.3158 44.8333ZM34.2105 55.5C33.74 55.5 33.3282 55.3274 32.9546 54.9488C32.5809 54.5701 32.4079 54.1498 32.4079 53.6667C32.4079 53.1835 32.5809 52.7632 32.9546 52.3845C33.3282 52.0059 33.74 51.8333 34.2105 51.8333C34.6811 51.8333 35.0928 52.0059 35.4665 52.3845C35.8402 52.7632 36.0132 53.1835 36.0132 53.6667C36.0132 54.1498 35.8402 54.5701 35.4665 54.9488C35.0928 55.3274 34.6811 55.5 34.2105 55.5Z" fill="white" stroke="black"/>
</svg>
